{
  "accessors": [
    {
      "bufferView": 0,
      "componentType": 5125,
      "count": 3360,
      "type": "SCALAR"
    },
    {
      "bufferView": 1,
      "componentType": 5126,
      "count": 886,
      "max": [
        1.41808092594147,
        3.17551851272583,
        1.54593884944916
      ],
      "min": [
        -1.88200902938843,
        0.0,
        -1.5459395647049
      ],
      "type": "VEC3"
    },
    {
      "bufferView": 2,
      "componentType": 5126,
      "count": 886,
      "type": "VEC3"
    },
    {
      "bufferView": 3,
      "componentType": 5126,
      "count": 886,
      "type": "VEC4"
    },
    {
      "bufferView": 4,
      "componentType": 5126,
      "count": 886,
      "type": "VEC2"
    }
  ],
  "asset": {
    "generator": "Adobe Substance 3D Painter 9.1.0",
    "version": "2.0"
  },
  "bufferViews": [
    {
      "buffer": 0,
      "byteLength": 13440,
      "target": 34963
    },
    {
      "buffer": 0,
      "byteLength": 10632,
      "byteOffset": 13440,
      "target": 34962
    },
    {
      "buffer": 0,
      "byteLength": 10632,
      "byteOffset": 24072,
      "target": 34962
    },
    {
      "buffer": 0,
      "byteLength": 14176,
      "byteOffset": 34704,
      "target": 34962
    },
    {
      "buffer": 0,
      "byteLength": 7088,
      "byteOffset": 48880,
      "target": 34962
    }
  ],
  "buffers": [
    {
      "byteLength": 55968,
      "uri": "PBR - Metallic Roughness Alpha-blend.bin"
    }
  ],
  "images": [
    {
      "uri": "aiStandardSurface1_baseColor.png"
    },
    {
      "uri": "aiStandardSurface1_occlusionRoughnessMetallic.png"
    },
    {
      "uri": "aiStandardSurface1_normal.png"
    }
  ],
  "materials": [
    {
      "alphaMode": "OPAQUE",
      "name": "aiStandardSurface1",
      "normalTexture": {
        "index": 2
      },
      "occlusionTexture": {
        "index": 1
      },
      "pbrMetallicRoughness": {
        "baseColorTexture": {
          "index": 0
        },
        "metallicRoughnessTexture": {
          "index": 1
        }
      }
    }
  ],
  "meshes": [
    {
      "name": "pCube6",
      "primitives": [
        {
          "attributes": {
            "NORMAL": 2,
            "POSITION": 1,
            "TANGENT": 3,
            "TEXCOORD_0": 4
          },
          "indices": 0,
          "material": 0,
          "mode": 4
        }
      ]
    }
  ],
  "nodes": [
    {
      "children": [
        1
      ],
      "name": "RootNode",
      "scale": [
        0.00999999977648258,
        0.00999999977648258,
        0.00999999977648258
      ]
    },
    {
      "children": [
        2
      ],
      "name": "pCube6"
    },
    {
      "mesh": 0,
      "name": "pCube6"
    }
  ],
  "samplers": [
    {
      "magFilter": 9729,
      "minFilter": 9985,
      "wrapS": 10497,
      "wrapT": 10497
    }
  ],
  "scene": 0,
  "scenes": [
    {
      "name": "Scene",
      "nodes": [
        0
      ]
    }
  ],
  "textures": [
    {
      "sampler": 0,
      "source": 0
    },
    {
      "sampler": 0,
      "source": 1
    },
    {
      "sampler": 0,
      "source": 2
    }
  ]
}